<mxfile host="app.diagrams.net" modified="2023-08-28T03:26:02.327Z" agent="Mozilla/5.0 (Macintosh; Intel Mac OS X 10_15_7) AppleWebKit/537.36 (KHTML, like Gecko) Chrome/115.0.0.0 Safari/537.36" version="21.5.2" etag="2BTpp-bUPBYEsQryXTMF" type="github">
  <diagram name="Page-1" id="1o-rZqY8yZ8scTz8J_77">
    <mxGraphModel>
      <root>
        <mxCell id="0" />
        <mxCell id="1" parent="0" />
      </root>
    </mxGraphModel>
  </diagram>
</mxfile>
